<?xml version="1.0" encoding="UTF-8" standalone="no"?><!DOCTYPE svg PUBLIC "-//W3C//DTD SVG 1.1//EN" "http://www.w3.org/Graphics/SVG/1.1/DTD/svg11.dtd"><svg width="auto;" height="auto" viewBox="0 0 1280 800" version="1.1" xmlns="http://www.w3.org/2000/svg" xmlns:xlink="http://www.w3.org/1999/xlink" xml:space="preserve" xmlns:serif="http://www.serif.com/" style="fill-rule:evenodd;clip-rule:evenodd;stroke-linejoin:round;stroke-miterlimit:2;"><g><path d="M706.516,469.292c0.518,0.162 1.036,0.267 1.554,0.315c0.517,0.049 1.035,0.073 1.553,0.073c1.294,0 2.54,-0.178 3.738,-0.534c1.197,-0.356 2.322,-0.866 3.373,-1.529c1.052,-0.663 1.99,-1.472 2.816,-2.427c0.825,-0.955 1.496,-2.014 2.014,-3.179l9.708,9.756c-1.229,1.748 -2.645,3.317 -4.247,4.709c-1.602,1.391 -3.333,2.573 -5.194,3.543c-1.861,0.971 -3.818,1.707 -5.873,2.209c-2.055,0.502 -4.167,0.752 -6.335,0.752c-3.657,0 -7.095,-0.679 -10.315,-2.038c-3.22,-1.36 -6.035,-3.253 -8.446,-5.68c-2.411,-2.427 -4.312,-5.315 -5.704,-8.664c-1.391,-3.35 -2.087,-7.031 -2.087,-11.043c0,-4.11 0.696,-7.864 2.087,-11.262c1.392,-3.398 3.293,-6.294 5.704,-8.689c2.411,-2.395 5.226,-4.255 8.446,-5.582c3.22,-1.327 6.658,-1.99 10.315,-1.99c2.168,0 4.288,0.259 6.359,0.776c2.071,0.518 4.037,1.262 5.898,2.233c1.86,0.971 3.6,2.16 5.218,3.568c1.618,1.408 3.042,2.985 4.271,4.733l-24.853,29.95Zm-30.897,12.718l-3.204,0l-5.145,-7.136c-1.262,1.133 -2.597,2.192 -4.005,3.179c-1.408,0.987 -2.888,1.845 -4.441,2.573c-1.554,0.728 -3.148,1.303 -4.782,1.723c-1.634,0.421 -3.292,0.631 -4.975,0.631c-3.657,0 -7.095,-0.687 -10.315,-2.063c-3.22,-1.375 -6.036,-3.284 -8.446,-5.728c-2.411,-2.443 -4.313,-5.339 -5.704,-8.688c-1.392,-3.35 -2.087,-6.998 -2.087,-10.946c0,-3.916 0.695,-7.557 2.087,-10.922c1.391,-3.366 3.293,-6.278 5.704,-8.738c2.41,-2.459 5.226,-4.385 8.446,-5.776c3.22,-1.392 6.658,-2.087 10.315,-2.087c1.165,0 2.37,0.097 3.616,0.291c1.246,0.194 2.46,0.51 3.641,0.946c1.181,0.437 2.289,1.012 3.325,1.724c1.035,0.712 1.909,1.585 2.621,2.621l0,-24.271l13.349,0l0,72.667Zm-58.365,-26.455c0,3.883 -0.696,7.499 -2.088,10.849c-1.391,3.349 -3.284,6.245 -5.679,8.688c-2.395,2.444 -5.202,4.369 -8.422,5.777c-3.22,1.408 -6.674,2.111 -10.364,2.111c-3.656,0 -7.095,-0.703 -10.315,-2.111c-3.219,-1.408 -6.035,-3.333 -8.446,-5.777c-2.411,-2.443 -4.312,-5.339 -5.703,-8.688c-1.392,-3.35 -2.088,-6.966 -2.088,-10.849c0,-3.948 0.696,-7.605 2.088,-10.971c1.391,-3.365 3.292,-6.27 5.703,-8.713c2.411,-2.443 5.227,-4.361 8.446,-5.752c3.22,-1.392 6.659,-2.087 10.315,-2.087c3.69,0 7.144,0.655 10.364,1.966c3.22,1.31 6.027,3.171 8.422,5.582c2.395,2.411 4.288,5.307 5.679,8.689c1.392,3.381 2.088,7.143 2.088,11.286Zm-53.732,20.041c-2.281,2.206 -4.919,3.963 -7.915,5.273c-3.22,1.408 -6.674,2.111 -10.363,2.111c-3.657,0 -7.096,-0.703 -10.315,-2.111c-3.22,-1.408 -6.036,-3.333 -8.447,-5.777c-2.411,-2.443 -4.312,-5.339 -5.703,-8.688c-1.392,-3.35 -2.088,-6.966 -2.088,-10.849c0,-3.948 0.696,-7.605 2.088,-10.971c1.391,-3.365 3.292,-6.27 5.703,-8.713c2.411,-2.443 5.227,-4.361 8.447,-5.752c3.219,-1.392 6.658,-2.087 10.315,-2.087c3.689,0 7.143,0.655 10.363,1.966c3.066,1.248 5.758,2.995 8.076,5.24l-9.119,10.05l-0.001,0c-1.197,-1.246 -2.596,-2.2 -4.198,-2.864c-1.602,-0.663 -3.309,-0.995 -5.121,-0.995c-1.813,0 -3.52,0.332 -5.122,0.995c-1.601,0.664 -2.993,1.618 -4.174,2.864c-1.181,1.246 -2.112,2.735 -2.791,4.466c-0.68,1.731 -1.02,3.665 -1.02,5.801c0,2.006 0.34,3.867 1.02,5.582c0.679,1.715 1.61,3.204 2.791,4.466c1.181,1.262 2.573,2.257 4.174,2.985c1.602,0.728 3.309,1.092 5.122,1.092c1.812,0 3.519,-0.34 5.121,-1.019c1.602,-0.68 3.001,-1.635 4.198,-2.864l0.035,-0.036l8.924,9.835Zm219.301,-32.274l-26.843,0c-0.906,0 -1.683,0.324 -2.33,0.971c-0.647,0.647 -0.971,1.424 -0.971,2.33c0,0.938 0.324,1.739 0.971,2.403c0.647,0.663 1.424,0.995 2.33,0.995l13.786,0c2.265,0 4.401,0.38 6.407,1.141c2.006,0.76 3.754,1.82 5.243,3.179c1.488,1.359 2.669,2.993 3.543,4.903c0.874,1.909 1.311,3.996 1.311,6.262c0,2.297 -0.437,4.441 -1.311,6.431c-0.874,1.99 -2.055,3.738 -3.543,5.243c-1.489,1.504 -3.237,2.686 -5.243,3.543c-2.006,0.858 -4.142,1.287 -6.407,1.287l-30.29,0l0,-13.204l30.29,0c0.906,0 1.682,-0.323 2.33,-0.971c0.647,-0.647 0.97,-1.423 0.97,-2.329c0,-0.939 -0.323,-1.554 -0.97,-1.845c-0.648,-0.291 -1.424,-0.437 -2.33,-0.437l-13.786,0c-2.298,0 -4.45,-0.437 -6.456,-1.311c-2.006,-0.873 -3.754,-2.063 -5.243,-3.567c-1.488,-1.505 -2.661,-3.261 -3.519,-5.267c-0.857,-2.006 -1.286,-4.158 -1.286,-6.456c0,-2.298 0.429,-4.45 1.286,-6.456c0.858,-2.006 2.031,-3.754 3.519,-5.243c1.489,-1.488 3.237,-2.661 5.243,-3.519c2.006,-0.857 4.158,-1.286 6.456,-1.286l26.843,0l0,13.203Zm-120.553,12.233c0,-1.813 -0.348,-3.568 -1.044,-5.267c-0.695,-1.699 -1.642,-3.204 -2.839,-4.515c-1.198,-1.31 -2.597,-2.362 -4.199,-3.155c-1.602,-0.793 -3.309,-1.189 -5.121,-1.189c-1.812,0 -3.519,0.324 -5.121,0.971c-1.602,0.647 -2.994,1.577 -4.175,2.791c-1.181,1.214 -2.111,2.694 -2.791,4.441c-0.68,1.748 -1.019,3.722 -1.019,5.923c0,1.909 0.339,3.721 1.019,5.436c0.68,1.715 1.61,3.22 2.791,4.515c1.181,1.294 2.573,2.313 4.175,3.058c1.602,0.744 3.309,1.116 5.121,1.116c1.812,0 3.519,-0.396 5.121,-1.189c1.602,-0.793 3.001,-1.845 4.199,-3.155c1.197,-1.311 2.144,-2.816 2.839,-4.515c0.696,-1.699 1.044,-3.454 1.044,-5.266Zm-58.365,0c0,-2.136 -0.348,-4.07 -1.044,-5.801c-0.696,-1.731 -1.642,-3.22 -2.84,-4.466c-1.197,-1.246 -2.597,-2.2 -4.198,-2.864c-1.602,-0.663 -3.309,-0.995 -5.122,-0.995c-1.812,0 -3.519,0.332 -5.121,0.995c-1.601,0.664 -2.993,1.618 -4.174,2.864c-1.181,1.246 -2.112,2.735 -2.791,4.466c-0.68,1.731 -1.02,3.665 -1.02,5.801c0,2.006 0.34,3.867 1.02,5.582c0.679,1.715 1.61,3.204 2.791,4.466c1.181,1.262 2.573,2.257 4.174,2.985c1.602,0.728 3.309,1.092 5.121,1.092c1.813,0 3.52,-0.34 5.122,-1.019c1.601,-0.68 3.001,-1.635 4.198,-2.864c1.198,-1.23 2.144,-2.719 2.84,-4.466c0.696,-1.748 1.044,-3.673 1.044,-5.776Zm109.407,-13.592c-0.615,-0.227 -1.222,-0.372 -1.82,-0.437c-0.599,-0.065 -1.222,-0.097 -1.869,-0.097c-1.812,0 -3.519,0.332 -5.121,0.995c-1.602,0.664 -2.994,1.61 -4.175,2.84c-1.181,1.229 -2.111,2.71 -2.791,4.441c-0.679,1.732 -1.019,3.681 -1.019,5.85c0,0.485 0.024,1.035 0.073,1.65c0.048,0.615 0.129,1.238 0.242,1.869c0.114,0.631 0.251,1.238 0.413,1.82c0.162,0.583 0.372,1.1 0.631,1.553l15.436,-20.484Zm39.61,-18.697l0,-13.349l7.378,0.097c1.295,0 2.54,-0.21 3.738,-0.631c1.197,-0.42 2.305,-1.003 3.325,-1.747c1.019,-0.744 1.917,-1.626 2.694,-2.646c0.777,-1.019 1.408,-2.127 1.893,-3.325c-1.456,0.615 -2.937,1.23 -4.442,1.845c-1.504,0.615 -3.017,0.922 -4.538,0.922c-3.204,0 -6.213,-0.566 -9.029,-1.699c-2.815,-1.132 -5.283,-2.742 -7.402,-4.83c-2.12,-2.087 -3.787,-4.627 -5,-7.621c-1.214,-2.993 -1.82,-6.35 -1.82,-10.072l0,-28.736l13.203,0l0,28.736c0,1.845 0.267,3.455 0.801,4.83c0.534,1.375 1.254,2.524 2.16,3.446c0.906,0.923 1.966,1.61 3.179,2.063c1.214,0.453 2.516,0.68 3.908,0.68c1.359,0 2.645,-0.316 3.859,-0.947c1.213,-0.631 2.273,-1.464 3.179,-2.5c0.906,-1.035 1.618,-2.208 2.136,-3.519c0.518,-1.31 0.777,-2.661 0.777,-4.053l0,-28.736l13.349,0l0,45.434c-0.033,3.657 -0.745,7.087 -2.136,10.291c-1.392,3.204 -3.293,6.003 -5.704,8.398c-2.411,2.394 -5.218,4.287 -8.422,5.679c-3.203,1.392 -6.634,2.087 -10.29,2.087l-6.796,-0.097Zm153.73,0l0,-13.349l7.378,0.097c1.295,0 2.541,-0.21 3.738,-0.631c1.197,-0.42 2.306,-1.003 3.325,-1.747c1.02,-0.744 1.918,-1.626 2.694,-2.646c0.777,-1.019 1.408,-2.127 1.893,-3.325c-1.456,0.615 -2.936,1.23 -4.441,1.845c-1.505,0.615 -3.018,0.922 -4.539,0.922c-3.204,0 -6.213,-0.566 -9.029,-1.699c-2.815,-1.132 -5.282,-2.742 -7.402,-4.83c-2.12,-2.087 -3.786,-4.627 -5,-7.621c-1.213,-2.993 -1.82,-6.35 -1.82,-10.072l0,-28.736l13.203,0l0,28.736c0,1.845 0.267,3.455 0.801,4.83c0.534,1.375 1.254,2.524 2.16,3.446c0.906,0.923 1.966,1.61 3.18,2.063c1.213,0.453 2.516,0.68 3.907,0.68c1.359,0 2.646,-0.316 3.859,-0.947c1.214,-0.631 2.274,-1.464 3.18,-2.5c0.906,-1.035 1.618,-2.208 2.135,-3.519c0.518,-1.31 0.777,-2.661 0.777,-4.053l0,-28.736l13.349,0l0,45.434c-0.032,3.657 -0.744,7.087 -2.136,10.291c-1.391,3.204 -3.293,6.003 -5.703,8.398c-2.411,2.394 -5.219,4.287 -8.422,5.679c-3.204,1.392 -6.634,2.087 -10.291,2.087l-6.796,-0.097Zm-310.402,-32.522c0.518,0.161 1.036,0.266 1.553,0.315c0.518,0.049 1.036,0.073 1.554,0.073c1.294,0 2.54,-0.178 3.737,-0.534c1.198,-0.356 2.322,-0.866 3.374,-1.529c1.052,-0.664 1.99,-1.473 2.815,-2.427c0.826,-0.955 1.497,-2.015 2.015,-3.18l9.708,9.757c-1.23,1.748 -2.645,3.317 -4.247,4.709c-1.602,1.391 -3.333,2.572 -5.194,3.543c-1.861,0.971 -3.819,1.707 -5.874,2.209c-2.055,0.501 -4.166,0.752 -6.334,0.752c-3.657,0 -7.095,-0.679 -10.315,-2.039c-3.22,-1.359 -6.036,-3.252 -8.447,-5.679c-2.41,-2.427 -4.312,-5.315 -5.703,-8.665c-1.392,-3.349 -2.087,-7.03 -2.087,-11.043c0,-4.11 0.695,-7.863 2.087,-11.261c1.391,-3.398 3.293,-6.294 5.703,-8.689c2.411,-2.395 5.227,-4.256 8.447,-5.582c3.22,-1.327 6.658,-1.991 10.315,-1.991c2.168,0 4.288,0.259 6.359,0.777c2.071,0.518 4.037,1.262 5.897,2.233c1.861,0.971 3.601,2.16 5.219,3.568c1.618,1.407 3.041,2.985 4.271,4.733l-24.853,29.95Zm290.549,-13.738c0,3.884 -0.696,7.5 -2.088,10.849c-1.391,3.35 -3.284,6.246 -5.679,8.689c-2.395,2.443 -5.202,4.369 -8.422,5.777c-3.22,1.407 -6.674,2.111 -10.363,2.111c-3.657,0 -7.095,-0.704 -10.315,-2.111c-3.22,-1.408 -6.036,-3.334 -8.447,-5.777c-2.41,-2.443 -4.312,-5.339 -5.703,-8.689c-1.392,-3.349 -2.087,-6.965 -2.087,-10.849c0,-3.948 0.695,-7.604 2.087,-10.97c1.391,-3.366 3.293,-6.27 5.703,-8.713c2.411,-2.443 5.227,-4.361 8.447,-5.752c3.22,-1.392 6.658,-2.088 10.315,-2.088c3.689,0 7.143,0.656 10.363,1.966c3.22,1.311 6.027,3.172 8.422,5.583c2.395,2.41 4.288,5.307 5.679,8.688c1.392,3.382 2.088,7.144 2.088,11.286Zm-188.632,26.455l-13.252,0l0,-51.987l3.204,0l4.369,5.048c2.136,-1.942 4.555,-3.438 7.257,-4.49c2.702,-1.052 5.525,-1.578 8.47,-1.578c3.172,0 6.165,0.607 8.98,1.821c2.816,1.213 5.275,2.88 7.379,4.999c2.103,2.12 3.762,4.596 4.975,7.427c1.214,2.832 1.82,5.849 1.82,9.053l0,29.707l-13.251,0l0,-29.707c0,-1.359 -0.259,-2.645 -0.777,-3.859c-0.518,-1.214 -1.23,-2.273 -2.136,-3.179c-0.906,-0.907 -1.958,-1.618 -3.155,-2.136c-1.197,-0.518 -2.476,-0.777 -3.835,-0.777c-1.391,0 -2.702,0.259 -3.932,0.777c-1.229,0.518 -2.297,1.229 -3.203,2.136c-0.906,0.906 -1.618,1.965 -2.136,3.179c-0.518,1.214 -0.777,2.5 -0.777,3.859l0,29.707Zm-55.75,0l-13.252,0l0,-51.987l3.204,0l4.368,5.048c2.136,-1.942 4.555,-3.438 7.257,-4.49c2.702,-1.052 5.526,-1.578 8.471,-1.578c3.171,0 6.164,0.607 8.98,1.821c2.815,1.213 5.275,2.88 7.378,4.999c2.104,2.12 3.762,4.596 4.976,7.427c1.213,2.832 1.82,5.849 1.82,9.053l0,29.707l-13.252,0l0,-29.707c0,-1.359 -0.259,-2.645 -0.777,-3.859c-0.517,-1.214 -1.229,-2.273 -2.135,-3.179c-0.906,-0.907 -1.958,-1.618 -3.156,-2.136c-1.197,-0.518 -2.475,-0.777 -3.834,-0.777c-1.392,0 -2.702,0.259 -3.932,0.777c-1.23,0.518 -2.298,1.229 -3.204,2.136c-0.906,0.906 -1.618,1.965 -2.136,3.179c-0.517,1.214 -0.776,2.5 -0.776,3.859l0,29.707Zm167.201,0l-13.252,0l0,-51.987l3.204,0l4.369,6.164c2.136,-1.941 4.563,-3.438 7.281,-4.49c2.718,-1.051 5.534,-1.577 8.446,-1.577l11.699,0l0,13.203l-11.699,0c-1.392,0 -2.702,0.259 -3.932,0.777c-1.229,0.517 -2.297,1.229 -3.203,2.135c-0.907,0.906 -1.619,1.974 -2.136,3.204c-0.518,1.23 -0.777,2.54 -0.777,3.932l0,28.639Zm-273.365,-13.931l34.804,0l0,13.931l-48.735,0l0,-69.608l13.931,0l0,55.677Zm337.197,-12.524c0,-2.135 -0.348,-4.069 -1.044,-5.8c-0.696,-1.732 -1.642,-3.22 -2.839,-4.466c-1.198,-1.246 -2.597,-2.201 -4.199,-2.864c-1.602,-0.663 -3.309,-0.995 -5.121,-0.995c-1.813,0 -3.52,0.332 -5.121,0.995c-1.602,0.663 -2.994,1.618 -4.175,2.864c-1.181,1.246 -2.112,2.734 -2.791,4.466c-0.68,1.731 -1.02,3.665 -1.02,5.8c0,2.007 0.34,3.867 1.02,5.583c0.679,1.715 1.61,3.203 2.791,4.465c1.181,1.262 2.573,2.258 4.175,2.986c1.601,0.728 3.308,1.092 5.121,1.092c1.812,0 3.519,-0.34 5.121,-1.02c1.602,-0.679 3.001,-1.634 4.199,-2.863c1.197,-1.23 2.143,-2.719 2.839,-4.466c0.696,-1.748 1.044,-3.673 1.044,-5.777Zm-270.404,-13.591c-0.615,-0.227 -1.222,-0.372 -1.82,-0.437c-0.599,-0.065 -1.222,-0.097 -1.869,-0.097c-1.813,0 -3.52,0.332 -5.121,0.995c-1.602,0.663 -2.994,1.61 -4.175,2.84c-1.181,1.229 -2.112,2.71 -2.791,4.441c-0.68,1.731 -1.019,3.681 -1.019,5.849c0,0.486 0.024,1.036 0.072,1.651c0.049,0.615 0.13,1.238 0.243,1.869c0.113,0.631 0.251,1.237 0.413,1.82c0.161,0.582 0.372,1.1 0.631,1.553l15.436,-20.484Z" style="fill:#fff;fill-rule:nonzero;;"/><path d="M396.182,320.339c7.188,-2.159 14.806,-3.319 22.694,-3.319c43.532,0 78.875,35.343 78.875,78.875c0,22.741 -9.644,43.247 -25.063,57.647l25.063,28.468l-157.751,0l0,-86.115c0,-24.502 11.197,-46.41 28.748,-60.881l0,118.528l103.94,0l-24.165,-27.434l-52.341,0l0,-105.769Z" style="fill:#fff;background:#fff !important;"/></g></svg>