<svg width="auto;" height="auto" viewBox="0 0 1280 800" xmlns="http://www.w3.org/2000/svg" fill-rule="evenodd" clip-rule="evenodd" stroke-linejoin="round" stroke-miterlimit="2"><g fill="#fff"><path d="M706.516 469.292a7.52 7.52 0 0 0 1.554.315c.517.049 1.035.073 1.553.073 1.294 0 2.54-.178 3.738-.534a13.514 13.514 0 0 0 3.373-1.529 12.562 12.562 0 0 0 2.816-2.427 12.77 12.77 0 0 0 2.014-3.179l9.708 9.756a26.103 26.103 0 0 1-4.247 4.709 26.78 26.78 0 0 1-5.194 3.543 25.967 25.967 0 0 1-5.873 2.209 26.6 26.6 0 0 1-6.335.752c-3.657 0-7.095-.679-10.315-2.038-3.22-1.36-6.035-3.253-8.446-5.68-2.411-2.427-4.312-5.315-5.704-8.664-1.391-3.35-2.087-7.031-2.087-11.043 0-4.11.696-7.864 2.087-11.262 1.392-3.398 3.293-6.294 5.704-8.689 2.411-2.395 5.226-4.255 8.446-5.582 3.22-1.327 6.658-1.99 10.315-1.99 2.168 0 4.288.259 6.359.776a26.714 26.714 0 0 1 5.898 2.233c1.86.971 3.6 2.16 5.218 3.568a26.322 26.322 0 0 1 4.271 4.733l-24.853 29.95zm-30.897 12.718h-3.204l-5.145-7.136a42.526 42.526 0 0 1-4.005 3.179 29.642 29.642 0 0 1-4.441 2.573 27.236 27.236 0 0 1-4.782 1.723 19.859 19.859 0 0 1-4.975.631c-3.657 0-7.095-.687-10.315-2.063-3.22-1.375-6.036-3.284-8.446-5.728-2.411-2.443-4.313-5.339-5.704-8.688-1.392-3.35-2.087-6.998-2.087-10.946 0-3.916.695-7.557 2.087-10.922 1.391-3.366 3.293-6.278 5.704-8.738 2.41-2.459 5.226-4.385 8.446-5.776 3.22-1.392 6.658-2.087 10.315-2.087a23.5 23.5 0 0 1 3.616.291c1.246.194 2.46.51 3.641.946a15.1 15.1 0 0 1 3.325 1.724 10.096 10.096 0 0 1 2.621 2.621v-24.271h13.349v72.667zm-58.365-26.455c0 3.883-.696 7.499-2.088 10.849-1.391 3.349-3.284 6.245-5.679 8.688-2.395 2.444-5.202 4.369-8.422 5.777-3.22 1.408-6.674 2.111-10.364 2.111-3.656 0-7.095-.703-10.315-2.111-3.219-1.408-6.035-3.333-8.446-5.777-2.411-2.443-4.312-5.339-5.703-8.688-1.392-3.35-2.088-6.966-2.088-10.849 0-3.948.696-7.605 2.088-10.971 1.391-3.365 3.292-6.27 5.703-8.713 2.411-2.443 5.227-4.361 8.446-5.752 3.22-1.392 6.659-2.087 10.315-2.087 3.69 0 7.144.655 10.364 1.966 3.22 1.31 6.027 3.171 8.422 5.582 2.395 2.411 4.288 5.307 5.679 8.689 1.392 3.381 2.088 7.143 2.088 11.286zm-53.732 20.041c-2.281 2.206-4.919 3.963-7.915 5.273-3.22 1.408-6.674 2.111-10.363 2.111-3.657 0-7.096-.703-10.315-2.111-3.22-1.408-6.036-3.333-8.447-5.777-2.411-2.443-4.312-5.339-5.703-8.688-1.392-3.35-2.088-6.966-2.088-10.849 0-3.948.696-7.605 2.088-10.971 1.391-3.365 3.292-6.27 5.703-8.713 2.411-2.443 5.227-4.361 8.447-5.752 3.219-1.392 6.658-2.087 10.315-2.087 3.689 0 7.143.655 10.363 1.966 3.066 1.248 5.758 2.995 8.076 5.24l-9.119 10.05h-.001a12.274 12.274 0 0 0-4.198-2.864c-1.602-.663-3.309-.995-5.121-.995-1.813 0-3.52.332-5.122.995a12.039 12.039 0 0 0-4.174 2.864c-1.181 1.246-2.112 2.735-2.791 4.466-.68 1.731-1.02 3.665-1.02 5.801 0 2.006.34 3.867 1.02 5.582.679 1.715 1.61 3.204 2.791 4.466a13.06 13.06 0 0 0 4.174 2.985 12.234 12.234 0 0 0 5.122 1.092c1.812 0 3.519-.34 5.121-1.019a12.755 12.755 0 0 0 4.198-2.864l.035-.036 8.924 9.835zm219.301-32.274H755.98c-.906 0-1.683.324-2.33.971s-.971 1.424-.971 2.33c0 .938.324 1.739.971 2.403.647.663 1.424.995 2.33.995h13.786c2.265 0 4.401.38 6.407 1.141 2.006.76 3.754 1.82 5.243 3.179 1.488 1.359 2.669 2.993 3.543 4.903.874 1.909 1.311 3.996 1.311 6.262 0 2.297-.437 4.441-1.311 6.431a17.251 17.251 0 0 1-3.543 5.243 16.322 16.322 0 0 1-5.243 3.543c-2.006.858-4.142 1.287-6.407 1.287h-30.29v-13.204h30.29c.906 0 1.682-.323 2.33-.971.647-.647.97-1.423.97-2.329 0-.939-.323-1.554-.97-1.845-.648-.291-1.424-.437-2.33-.437H755.98c-2.298 0-4.45-.437-6.456-1.311a16.648 16.648 0 0 1-5.243-3.567 16.823 16.823 0 0 1-3.519-5.267c-.857-2.006-1.286-4.158-1.286-6.456s.429-4.45 1.286-6.456c.858-2.006 2.031-3.754 3.519-5.243 1.489-1.488 3.237-2.661 5.243-3.519 2.006-.857 4.158-1.286 6.456-1.286h26.843v13.203zM662.27 455.555c0-1.813-.348-3.568-1.044-5.267a15.132 15.132 0 0 0-2.839-4.515 14.14 14.14 0 0 0-4.199-3.155 11.39 11.39 0 0 0-5.121-1.189c-1.812 0-3.519.324-5.121.971a12.05 12.05 0 0 0-4.175 2.791c-1.181 1.214-2.111 2.694-2.791 4.441-.68 1.748-1.019 3.722-1.019 5.923 0 1.909.339 3.721 1.019 5.436.68 1.715 1.61 3.22 2.791 4.515a13.037 13.037 0 0 0 4.175 3.058 12.01 12.01 0 0 0 5.121 1.116 11.39 11.39 0 0 0 5.121-1.189 14.14 14.14 0 0 0 4.199-3.155 15.132 15.132 0 0 0 2.839-4.515 13.765 13.765 0 0 0 1.044-5.266zm-58.365 0c0-2.136-.348-4.07-1.044-5.801-.696-1.731-1.642-3.22-2.84-4.466a12.284 12.284 0 0 0-4.198-2.864c-1.602-.663-3.309-.995-5.122-.995-1.812 0-3.519.332-5.121.995a12.039 12.039 0 0 0-4.174 2.864c-1.181 1.246-2.112 2.735-2.791 4.466-.68 1.731-1.02 3.665-1.02 5.801 0 2.006.34 3.867 1.02 5.582.679 1.715 1.61 3.204 2.791 4.466a13.06 13.06 0 0 0 4.174 2.985 12.233 12.233 0 0 0 5.121 1.092c1.813 0 3.52-.34 5.122-1.019a12.765 12.765 0 0 0 4.198-2.864c1.198-1.23 2.144-2.719 2.84-4.466.696-1.748 1.044-3.673 1.044-5.776zm109.407-13.592a7.63 7.63 0 0 0-1.82-.437 17.33 17.33 0 0 0-1.869-.097c-1.812 0-3.519.332-5.121.995a12.19 12.19 0 0 0-4.175 2.84c-1.181 1.229-2.111 2.71-2.791 4.441-.679 1.732-1.019 3.681-1.019 5.85a20.978 20.978 0 0 0 .315 3.519c.114.631.251 1.238.413 1.82.162.583.372 1.1.631 1.553l15.436-20.484zm39.61-18.697v-13.349l7.378.097c1.295 0 2.54-.21 3.738-.631a12.808 12.808 0 0 0 3.325-1.747 13.038 13.038 0 0 0 2.694-2.646 14.319 14.319 0 0 0 1.893-3.325c-1.456.615-2.937 1.23-4.442 1.845-1.504.615-3.017.922-4.538.922-3.204 0-6.213-.566-9.029-1.699-2.815-1.132-5.283-2.742-7.402-4.83-2.12-2.087-3.787-4.627-5-7.621-1.214-2.993-1.82-6.35-1.82-10.072v-28.736h13.203v28.736c0 1.845.267 3.455.801 4.83s1.254 2.524 2.16 3.446a8.633 8.633 0 0 0 3.179 2.063c1.214.453 2.516.68 3.908.68a8.251 8.251 0 0 0 3.859-.947 10.825 10.825 0 0 0 3.179-2.5 11.983 11.983 0 0 0 2.136-3.519c.518-1.31.777-2.661.777-4.053v-28.736h13.349v45.434c-.033 3.657-.745 7.087-2.136 10.291-1.392 3.204-3.293 6.003-5.704 8.398-2.411 2.394-5.218 4.287-8.422 5.679-3.203 1.392-6.634 2.087-10.29 2.087l-6.796-.097zm153.73 0v-13.349l7.378.097c1.295 0 2.541-.21 3.738-.631a12.792 12.792 0 0 0 3.325-1.747 12.989 12.989 0 0 0 2.694-2.646 14.319 14.319 0 0 0 1.893-3.325c-1.456.615-2.936 1.23-4.441 1.845s-3.018.922-4.539.922c-3.204 0-6.213-.566-9.029-1.699a22.28 22.28 0 0 1-7.402-4.83c-2.12-2.087-3.786-4.627-5-7.621-1.213-2.993-1.82-6.35-1.82-10.072v-28.736h13.203v28.736c0 1.845.267 3.455.801 4.83s1.254 2.524 2.16 3.446a8.629 8.629 0 0 0 3.18 2.063c1.213.453 2.516.68 3.907.68a8.248 8.248 0 0 0 3.859-.947 10.816 10.816 0 0 0 3.18-2.5 11.96 11.96 0 0 0 2.135-3.519c.518-1.31.777-2.661.777-4.053v-28.736H940v45.434c-.032 3.657-.744 7.087-2.136 10.291-1.391 3.204-3.293 6.003-5.703 8.398-2.411 2.394-5.219 4.287-8.422 5.679-3.204 1.392-6.634 2.087-10.291 2.087l-6.796-.097zM596.25 390.744a7.659 7.659 0 0 0 1.553.315c.518.049 1.036.073 1.554.073 1.294 0 2.54-.178 3.737-.534a13.52 13.52 0 0 0 3.374-1.529 12.75 12.75 0 0 0 4.83-5.607l9.708 9.757a26.14 26.14 0 0 1-4.247 4.709 26.825 26.825 0 0 1-5.194 3.543 25.974 25.974 0 0 1-5.874 2.209 26.643 26.643 0 0 1-6.334.752c-3.657 0-7.095-.679-10.315-2.039-3.22-1.359-6.036-3.252-8.447-5.679-2.41-2.427-4.312-5.315-5.703-8.665-1.392-3.349-2.087-7.03-2.087-11.043 0-4.11.695-7.863 2.087-11.261 1.391-3.398 3.293-6.294 5.703-8.689 2.411-2.395 5.227-4.256 8.447-5.582 3.22-1.327 6.658-1.991 10.315-1.991 2.168 0 4.288.259 6.359.777a26.687 26.687 0 0 1 5.897 2.233 26.85 26.85 0 0 1 5.219 3.568 26.326 26.326 0 0 1 4.271 4.733l-24.853 29.95zm290.549-13.738c0 3.884-.696 7.5-2.088 10.849-1.391 3.35-3.284 6.246-5.679 8.689-2.395 2.443-5.202 4.369-8.422 5.777-3.22 1.407-6.674 2.111-10.363 2.111-3.657 0-7.095-.704-10.315-2.111-3.22-1.408-6.036-3.334-8.447-5.777-2.41-2.443-4.312-5.339-5.703-8.689-1.392-3.349-2.087-6.965-2.087-10.849 0-3.948.695-7.604 2.087-10.97 1.391-3.366 3.293-6.27 5.703-8.713 2.411-2.443 5.227-4.361 8.447-5.752 3.22-1.392 6.658-2.088 10.315-2.088 3.689 0 7.143.656 10.363 1.966 3.22 1.311 6.027 3.172 8.422 5.583 2.395 2.41 4.288 5.307 5.679 8.688 1.392 3.382 2.088 7.144 2.088 11.286zm-188.632 26.455h-13.252v-51.987h3.204l4.369 5.048a23.215 23.215 0 0 1 7.257-4.49 23.14 23.14 0 0 1 8.47-1.578c3.172 0 6.165.607 8.98 1.821 2.816 1.213 5.275 2.88 7.379 4.999 2.103 2.12 3.762 4.596 4.975 7.427 1.214 2.832 1.82 5.849 1.82 9.053v29.707h-13.251v-29.707a9.729 9.729 0 0 0-.777-3.859 9.993 9.993 0 0 0-5.291-5.315 9.554 9.554 0 0 0-3.835-.777c-1.391 0-2.702.259-3.932.777a9.919 9.919 0 0 0-3.203 2.136 9.993 9.993 0 0 0-2.136 3.179 9.729 9.729 0 0 0-.777 3.859v29.707zm-55.75 0h-13.252v-51.987h3.204l4.368 5.048a23.215 23.215 0 0 1 7.257-4.49 23.145 23.145 0 0 1 8.471-1.578c3.171 0 6.164.607 8.98 1.821 2.815 1.213 5.275 2.88 7.378 4.999 2.104 2.12 3.762 4.596 4.976 7.427 1.213 2.832 1.82 5.849 1.82 9.053v29.707h-13.252v-29.707a9.729 9.729 0 0 0-.777-3.859 9.974 9.974 0 0 0-2.135-3.179 10.055 10.055 0 0 0-3.156-2.136 9.55 9.55 0 0 0-3.834-.777c-1.392 0-2.702.259-3.932.777a9.912 9.912 0 0 0-3.204 2.136 9.993 9.993 0 0 0-2.136 3.179 9.746 9.746 0 0 0-.776 3.859v29.707zm167.201 0h-13.252v-51.987h3.204l4.369 6.164a23.162 23.162 0 0 1 7.281-4.49 23.225 23.225 0 0 1 8.446-1.577h11.699v13.203h-11.699c-1.392 0-2.702.259-3.932.777a9.916 9.916 0 0 0-3.203 2.135 9.896 9.896 0 0 0-2.136 3.204 10.024 10.024 0 0 0-.777 3.932v28.639zM536.253 389.53h34.804v13.931h-48.735v-69.608h13.931v55.677zm337.197-12.524c0-2.135-.348-4.069-1.044-5.8-.696-1.732-1.642-3.22-2.839-4.466a12.274 12.274 0 0 0-4.199-2.864c-1.602-.663-3.309-.995-5.121-.995-1.813 0-3.52.332-5.121.995a12.02 12.02 0 0 0-4.175 2.864c-1.181 1.246-2.112 2.734-2.791 4.466-.68 1.731-1.02 3.665-1.02 5.8 0 2.007.34 3.867 1.02 5.583.679 1.715 1.61 3.203 2.791 4.465a13.056 13.056 0 0 0 4.175 2.986 12.226 12.226 0 0 0 5.121 1.092c1.812 0 3.519-.34 5.121-1.02a12.751 12.751 0 0 0 4.199-2.863c1.197-1.23 2.143-2.719 2.839-4.466.696-1.748 1.044-3.673 1.044-5.777zm-270.404-13.591a7.63 7.63 0 0 0-1.82-.437 17.33 17.33 0 0 0-1.869-.097c-1.813 0-3.52.332-5.121.995a12.177 12.177 0 0 0-4.175 2.84c-1.181 1.229-2.112 2.71-2.791 4.441-.68 1.731-1.019 3.681-1.019 5.849 0 .486.024 1.036.072 1.651a19.884 19.884 0 0 0 .656 3.689c.161.582.372 1.1.631 1.553l15.436-20.484z" fill-rule="nonzero"/><path d="M396.182 320.339a78.771 78.771 0 0 1 22.694-3.319c43.532 0 78.875 35.343 78.875 78.875 0 22.741-9.644 43.247-25.063 57.647l25.063 28.468H340v-86.115c0-24.502 11.197-46.41 28.748-60.881v118.528h103.94l-24.165-27.434h-52.341V320.339z" style="background:#fff"/></g></svg>